<svg xmlns="http://www.w3.org/2000/svg" viewBox="0 0 240 180">
<rect x="156" y="26" width="62" height="28" rx="14" fill="#fff"/><circle cx="172" cy="40" r="6" fill="#12B5D6"/><rect x="183" y="34" width="26" height="4" rx="2" fill="#182350" fill-opacity=".7"/><rect x="183" y="42" width="18" height="4" rx="2" fill="#182350" fill-opacity=".3"/>
<rect x="164" y="124" width="56" height="26" rx="13" fill="#FBB040"/><circle cx="179" cy="137" r="5.5" fill="#fff"/><rect x="190" y="131" width="22" height="4" rx="2" fill="#182350" fill-opacity=".75"/><rect x="190" y="139" width="14" height="4" rx="2" fill="#182350" fill-opacity=".35"/>
<circle cx="214" cy="26" r="8" fill="#E0553F"/><rect x="212" y="21" width="4" height="7" rx="2" fill="#fff"/><circle cx="214" cy="31.5" r="1.8" fill="#fff"/>
<path d="M34 47Q34 54 41 54Q34 54 34 61Q34 54 27 54Q34 54 34 47Z" fill="#FBB040"/><path d="M150 93Q150 100 157 100Q150 100 150 107Q150 100 143 100Q150 100 150 93Z" fill="#fff"/>
</svg>
