<svg xmlns="http://www.w3.org/2000/svg" viewBox="0 0 240 180">
<rect x="62" y="38" width="124" height="116" rx="8" fill="#E8E6F0" transform="rotate(4 124 96)"/>
<rect x="56" y="34" width="124" height="116" rx="8" fill="#fff"/>
<rect x="56" y="34" width="124" height="26" rx="8" fill="#182350"/><rect x="56" y="50" width="124" height="10" fill="#182350"/>
<rect x="68" y="42" width="56" height="8" rx="4" fill="#fff"/><circle cx="162" cy="47" r="6" fill="#FBB040"/>
<rect x="68" y="70" width="46" height="34" rx="6" fill="#12B5D6"/><path d="M68 98 L84 82 L96 94 L104 86 L114 96 V98 a6 6 0 0 1 -6 6 H74 a6 6 0 0 1 -6 -6Z" fill="#fff" fill-opacity=".45"/>
<g fill="#182350" fill-opacity=".55"><rect x="122" y="72" width="48" height="5" rx="2.5"/><rect x="122" y="84" width="40" height="5" rx="2.5"/><rect x="122" y="96" width="46" height="5" rx="2.5"/></g>
<g fill="#C9D2EC"><rect x="68" y="114" width="102" height="5" rx="2.5"/><rect x="68" y="126" width="88" height="5" rx="2.5"/><rect x="68" y="138" width="96" height="5" rx="2.5"/></g>
</svg>
